<?xml version="1.0" encoding="utf-8"?>
<!-- Generator: Adobe Illustrator 27.3.1, SVG Export Plug-In . SVG Version: 6.00 Build 0)  -->
<svg version="1.1" id="Layer_2_00000135649751397409468110000017353058470244291233_"
	 xmlns="http://www.w3.org/2000/svg" xmlns:xlink="http://www.w3.org/1999/xlink" x="0px" y="0px" viewBox="0 0 1000 500"
	 style="enable-background:new 0 0 1000 500;" xml:space="preserve">
<style type="text/css">
	.st0{fill:#FFFFFF;}
	.st1{font-family:'AristaProAlternate-Bold';}
	.st2{font-size:216.82px;}
</style>
<g>
	<path class="st0" d="M196.8,359.5H167V137.8l2.9-0.6c54.6-10.7,70.6,20.4,74.1,29.8c12.5,1.1,22.1,5.8,28.9,14
		c11.2,13.7,10.4,32.6,9.9,38.1c9.1,12.6,12.8,25.3,11.1,37.9c-2.4,16.8-13.8,28-18,31.6c0.4,18.4-8.1,28.9-15.4,34.5
		c-5.8,4.5-11.7,6.5-14.7,7.4c-4.6,11.8-14.4,20.5-28.3,25.3C206.6,359.5,197.1,359.5,196.8,359.5L196.8,359.5z M174.1,352.4h22.7
		c0.3,0,34.1-0.4,42.9-26.1l0.7-2l2.1-0.4c1.1-0.2,27.7-5.7,26.2-36.9l-0.1-1.9l1.5-1.1c1.4-1,33.3-25.8,6.1-61.8l-0.9-1.2l0.2-1.5
		c0-0.2,2.8-20.7-8.2-34.1c-5.8-7.1-14.6-10.9-26.1-11.5l-2.7-0.1l-0.6-2.6c-0.4-1.5-9.5-36.9-63.8-27.5V352.4L174.1,352.4z"/>
	<g>
		<path class="st0" d="M231.5,260.4c-11.8,0-22.5-10.6-23-11.1c-16.3-16.3-34.9-0.5-35.7,0.2c-1.5,1.3-3.8,1.1-5-0.4s-1.1-3.7,0.4-5
			c8.4-7.3,28.6-16.6,45.4,0.2c3.4,3.4,13.9,11.4,21.9,8.3c1.8-0.7,3.9,0.2,4.6,2.1c0.7,1.8-0.2,3.9-2.1,4.6
			C235.8,260.1,233.7,260.4,231.5,260.4L231.5,260.4z"/>
		<path class="st0" d="M256.1,277.5c-3.7,0-7.4-0.9-10.6-2.6c-7.6-4-12.4-11.8-12.4-20.4c0-12.7,10.3-23,23-23c2.4,0,4.7,0.4,7,1.1
			c1.9,0.6,2.9,2.6,2.3,4.5s-2.6,2.9-4.5,2.3c-1.5-0.5-3.1-0.7-4.8-0.7c-8.7,0-15.8,7.1-15.8,15.8c0,5.9,3.3,11.3,8.5,14.1
			c2.3,1.2,4.7,1.8,7.3,1.8c2,0,3.6,1.6,3.6,3.6S258.1,277.5,256.1,277.5L256.1,277.5z"/>
	</g>
	<path class="st0" d="M177.8,197.6c-2.7,0-5.4-0.3-8-0.8c-1.9-0.4-3.2-2.3-2.8-4.2s2.3-3.2,4.2-2.8c2.1,0.4,4.3,0.7,6.5,0.7
		c7.9,0,15.5-2.9,21.4-8.1c1.5-1.3,3.7-1.1,5,0.3c1.3,1.5,1.2,3.7-0.3,5C196.7,194.1,187.4,197.6,177.8,197.6L177.8,197.6z"/>
	<path class="st0" d="M201.6,324.5c-0.8,0-1.7-0.3-2.4-0.9c-5.9-5.2-13.5-8-21.4-8c-2.2,0-4.4,0.2-6.5,0.7c-1.9,0.4-3.8-0.9-4.2-2.8
		s0.9-3.8,2.8-4.2c2.6-0.5,5.3-0.8,8-0.8c9.6,0,18.9,3.5,26.1,9.8c1.5,1.3,1.6,3.6,0.3,5C203.5,324.1,202.6,324.5,201.6,324.5
		L201.6,324.5z"/>
	<path class="st0" d="M243,331c-0.4,0-0.7,0-1.1-0.2c-1.9-0.6-2.9-2.6-2.4-4.5c0.1-0.3,4.3-14.8-3.1-24c-5-6.3-14.4-9-27.9-8.1
		c-1.9,0.1-3.7-1.4-3.8-3.3s1.4-3.7,3.3-3.8c16-1.1,27.4,2.6,33.9,10.8c9.7,12.3,4.5,29.8,4.3,30.5C245.9,330,244.5,331,243,331
		L243,331z"/>
	<path class="st0" d="M201.6,224.2c-1.8,0-3.4-1.4-3.6-3.3c-0.2-2,1.3-3.7,3.3-3.8c15.6-1.2,26.5-6.8,32.4-16.4
		c7.9-13,4.2-29.3,4.1-29.5c-0.4-1.9,0.7-3.8,2.6-4.3c1.9-0.5,3.8,0.7,4.3,2.6c0.2,0.8,4.5,19.3-5,34.8
		c-7.1,11.7-19.9,18.4-37.9,19.8C201.8,224.2,201.7,224.2,201.6,224.2L201.6,224.2z"/>
	<path class="st0" d="M249.4,224.2c-1.7,0-3.3-1.3-3.5-3c0-0.1-2-12.5-10.2-15.3c-1.9-0.6-2.9-2.7-2.2-4.5c0.6-1.9,2.7-2.9,4.5-2.2
		c12.4,4.2,14.9,20.3,15,20.9c0.3,1.9-1.1,3.8-3,4.1C249.7,224.2,249.5,224.2,249.4,224.2L249.4,224.2z"/>
	<path class="st0" d="M154,358.6c-0.2,0-0.3,0-0.5,0c-54.5-7.8-95.6-55.3-95.6-110.4c0-2,1.6-3.6,3.6-3.6s3.6,1.6,3.6,3.6
		c0,51.6,38.5,96.1,89.5,103.4c1.9,0.3,3.3,2.1,3,4C157.3,357.3,155.8,358.6,154,358.6L154,358.6z"/>
	<path class="st0" d="M66.7,218.4c-0.4,0-0.7-0.1-1.1-0.2c-1.9-0.6-2.9-2.6-2.3-4.5c13-40.2,48.4-70.1,90.2-76.1
		c1.9-0.3,3.8,1.1,4,3s-1.1,3.8-3,4c-39.1,5.6-72.2,33.5-84.4,71.2C69.6,217.5,68.2,218.4,66.7,218.4z"/>
	<path class="st0" d="M154,338.8c-0.2,0-0.4,0-0.6,0c-19.2-3.4-36.6-12.7-50.3-26.9c-1.4-1.4-1.3-3.7,0.1-5s3.7-1.3,5.1,0.1
		c12.6,13.1,28.6,21.6,46.4,24.8c1.9,0.3,3.2,2.2,2.9,4.1C157.2,337.6,155.7,338.9,154,338.8L154,338.8z"/>
	<path class="st0" d="M84.1,275c-1.6,0-3-1-3.4-2.6c-2.2-7.9-3.2-16-3.2-24.3c0-33.7,18.4-64.7,48-80.8c1.7-0.9,3.9-0.3,4.9,1.4
		c0.9,1.7,0.3,3.9-1.4,4.9c-27.3,14.9-44.2,43.5-44.2,74.6c0,7.6,1,15.1,3,22.4c0.5,1.9-0.6,3.9-2.5,4.4
		C84.7,275,84.4,275.1,84.1,275L84.1,275z"/>
	<path class="st0" d="M154,318.1c-0.3,0-0.5,0-0.8-0.1c-33-7.4-56.1-36.3-56.1-70.2s23.1-62.8,56.1-70.2c1.9-0.4,3.8,0.8,4.3,2.7
		c0.4,1.9-0.8,3.8-2.7,4.3c-29.8,6.7-50.5,32.7-50.5,63.2s20.8,56.5,50.5,63.2c1.9,0.4,3.1,2.3,2.7,4.3
		C157.1,316.9,155.6,318.1,154,318.1L154,318.1z"/>
</g>
<text transform="matrix(1 0 0 1 347.88 311.69)" class="st0 st1 st2">Onirix</text>
</svg>
