<?xml version="1.0" encoding="UTF-8"?>
<svg id="Layer_1" data-name="Layer 1" xmlns="http://www.w3.org/2000/svg" viewBox="0 0 1000 1000">
  <defs>
    <style>
      .cls-1 {
        fill: #fff;
      }
    </style>
  </defs>
  <g id="bg">
    <rect class="cls-1" width="1000" height="1000"/>
  </g>
  <g id="logomark-expanded">
    <g>
      <path class="cls-1" d="m559.25,864.28h-96.8V144.75l9.35-1.83c177.29-34.8,229.13,66.24,240.52,96.69,40.4,3.64,71.89,18.89,93.68,45.41,36.42,44.31,33.72,105.78,32.04,123.54,29.6,40.73,41.67,82.03,35.89,122.81-7.71,54.39-44.89,90.87-58.38,102.5,1.13,59.71-26.25,93.78-49.85,111.99-18.75,14.47-37.86,21.23-47.65,23.99-15.1,38.32-46.71,66.67-91.82,82.23-35.01,12.07-65.71,12.21-67,12.21h.02Zm-73.62-23.18h73.62c1.09,0,110.69-1.25,139.09-84.77l2.18-6.43,6.68-1.24c3.64-.7,90-18.4,85.02-119.56l-.3-6.15,4.92-3.69c4.44-3.35,107.94-83.72,19.93-200.5l-2.9-3.85.69-4.78c.09-.65,9.06-67.31-26.54-110.5-18.9-22.93-47.44-35.52-84.85-37.44l-8.71-.45-1.98-8.49c-1.18-4.95-30.88-119.7-206.84-89.31v677.17h0Z"/>
      <g>
        <path class="cls-1" d="m672.14,542.65c-38.2,0-73.04-34.34-74.76-36.06-52.92-52.91-113.2-1.66-115.74.55-4.84,4.19-12.15,3.68-16.35-1.15s-3.68-12.15,1.15-16.34c27.17-23.61,92.93-53.84,147.32.55,10.92,10.86,45.01,36.91,71.04,27,5.97-2.27,12.67.72,14.95,6.7,2.28,5.98-.72,12.68-6.7,14.96-6.96,2.65-13.99,3.78-20.92,3.78h.01Z"/>
        <path class="cls-1" d="m751.92,598.21c-11.96,0-23.87-2.91-34.42-8.41-24.77-12.9-40.15-38.26-40.15-66.16,0-41.12,33.45-74.58,74.57-74.58,7.7,0,15.29,1.17,22.57,3.48,6.1,1.94,9.48,8.45,7.54,14.55-1.94,6.1-8.42,9.49-14.55,7.54-5-1.59-10.24-2.4-15.56-2.4-28.34,0-51.4,23.06-51.4,51.4,0,19.24,10.61,36.71,27.69,45.61,7.36,3.84,15.34,5.78,23.71,5.78,6.4,0,11.59,5.19,11.59,11.59s-5.19,11.59-11.59,11.59h0Z"/>
      </g>
      <path class="cls-1" d="m497.88,338.93c-8.68,0-17.38-.88-25.84-2.61-6.27-1.28-10.31-7.4-9.03-13.68,1.29-6.27,7.41-10.3,13.68-9.03,6.93,1.42,14.06,2.14,21.19,2.14,25.55,0,50.18-9.28,69.34-26.12,4.82-4.22,12.13-3.75,16.36,1.06,4.22,4.81,3.75,12.13-1.06,16.36-23.39,20.56-53.46,31.88-84.64,31.88h0Z"/>
      <path class="cls-1" d="m574.87,750.75c-2.72,0-5.44-.95-7.64-2.88-19.16-16.84-43.79-26.12-69.34-26.12-7.13,0-14.26.72-21.19,2.14-6.27,1.26-12.39-2.76-13.68-9.03-1.28-6.27,2.76-12.39,9.03-13.68,8.46-1.73,17.16-2.61,25.84-2.61,31.19,0,61.25,11.32,84.64,31.88,4.81,4.22,5.28,11.55,1.06,16.36-2.29,2.61-5.49,3.94-8.71,3.94h0Z"/>
      <path class="cls-1" d="m709.32,771.66c-1.13,0-2.27-.17-3.4-.51-6.12-1.87-9.56-8.35-7.69-14.46.28-.93,13.91-47.88-9.95-77.88-16.19-20.37-46.64-29.21-90.39-26.32-6.29.45-11.91-4.4-12.33-10.8-.42-6.39,4.41-11.9,10.8-12.33,51.89-3.46,88.97,8.37,110.17,35.14,31.5,39.78,14.61,96.56,13.87,98.96-1.53,4.99-6.12,8.2-11.07,8.2h0Z"/>
      <path class="cls-1" d="m574.86,425.23c-5.98,0-11.06-4.61-11.53-10.68-.51-6.38,4.26-11.96,10.64-12.46,50.68-3.99,86.04-21.89,105.1-53.21,25.6-42.07,13.55-95.06,13.42-95.59-1.46-6.22,2.39-12.47,8.61-13.94,6.25-1.48,12.46,2.36,13.94,8.57.6,2.53,14.48,62.64-16.17,113-23.14,38.04-64.55,59.66-123.07,64.27-.31.02-.62.03-.93.03h0Z"/>
      <path class="cls-1" d="m729.94,425.23c-5.63,0-10.57-4.11-11.44-9.84-.08-.5-6.59-40.47-33.27-49.52-6.07-2.06-9.31-8.63-7.26-14.7,2.05-6.05,8.64-9.31,14.7-7.25,40.14,13.61,48.41,65.78,48.74,67.99.95,6.33-3.41,12.23-9.74,13.18-.58.09-1.16.13-1.74.13h.01Z"/>
      <path class="cls-1" d="m420.53,861.26c-.55,0-1.1-.04-1.66-.12-176.85-25.34-310.22-179.42-310.22-358.4,0-6.4,5.19-11.59,11.59-11.59s11.59,5.19,11.59,11.59c0,167.53,124.82,311.74,290.33,335.46,6.34.91,10.74,6.78,9.82,13.12-.82,5.77-5.78,9.94-11.45,9.94h0Z"/>
      <path class="cls-1" d="m137.16,406.41c-1.18,0-2.38-.18-3.57-.57-6.09-1.97-9.43-8.5-7.45-14.59,42.24-130.58,157.14-227.47,292.74-246.84,6.3-.94,12.2,3.49,13.11,9.83.91,6.33-3.5,12.2-9.84,13.11-126.89,18.12-234.43,108.81-273.97,231.03-1.58,4.91-6.13,8.03-11.02,8.03h0Z"/>
      <path class="cls-1" d="m420.53,797.15c-.66,0-1.34-.06-2.02-.18-62.46-10.98-118.89-41.1-163.16-87.12-4.44-4.61-4.29-11.95.32-16.39,4.61-4.44,11.93-4.3,16.39.32,40.84,42.45,92.88,70.24,150.47,80.36,6.3,1.11,10.52,7.12,9.41,13.42-.99,5.62-5.88,9.58-11.4,9.58h-.01Z"/>
      <path class="cls-1" d="m193.62,590.1c-5.1,0-9.77-3.39-11.17-8.54-6.97-25.56-10.5-52.08-10.5-78.8,0-109.31,59.64-209.82,155.63-262.32,5.61-3.07,12.66-1.01,15.73,4.61s1,12.66-4.61,15.73c-88.56,48.43-143.58,141.15-143.58,241.99,0,24.66,3.26,49.12,9.69,72.7,1.68,6.17-1.96,12.55-8.13,14.23-1.02.28-2.04.41-3.06.41h0Z"/>
      <path class="cls-1" d="m420.52,729.71c-.84,0-1.7-.09-2.56-.29-107.16-24.16-182.01-117.84-182.01-227.84s74.84-203.68,182.01-227.84c6.29-1.42,12.45,2.52,13.85,8.75,1.41,6.25-2.51,12.45-8.75,13.85-96.52,21.76-163.93,106.15-163.93,205.23s67.41,183.47,163.93,205.23c6.24,1.41,10.16,7.61,8.75,13.85-1.21,5.39-5.99,9.05-11.29,9.05h0Z"/>
    </g>
  </g>
</svg>