<?xml version="1.0" encoding="utf-8"?>
<!-- Generator: Adobe Illustrator 27.3.1, SVG Export Plug-In . SVG Version: 6.00 Build 0)  -->
<svg version="1.1" xmlns="http://www.w3.org/2000/svg" xmlns:xlink="http://www.w3.org/1999/xlink" x="0px" y="0px"
	 viewBox="0 0 1000 500" style="enable-background:new 0 0 1000 500;" xml:space="preserve">
<style type="text/css">
	.st0{fill:#FFFFFF;}
</style>
<g id="Layer_1">
</g>
<g id="Layer_2">
	<g>
		<g>
			<path class="st0" d="M522.51,353.93V135.09h40.96v218.84H522.51z"/>
			<path class="st0" d="M618.17,353.93V135.09h40.96v218.84H618.17z"/>
			<path class="st0" d="M906.09,242.63c0.94,55.34-32.82,111.3-109.42,111.3c-26.88,0-59.09,0-85.98,0V135.09
				c26.89,0,59.09,0,85.98,0C871.7,135.09,905.16,188.55,906.09,242.63z M751.65,314.22h45.02c49.71,0,69.4-36.27,68.47-71.9
				c-0.94-34.08-20.95-68.16-68.47-68.16h-45.02V314.22z"/>
		</g>
		<g>
			<g>
				<path class="st0" d="M183.69,115.39c50.11,0,90.87,40.77,90.87,90.87c0,50.11-40.76,90.88-90.87,90.88
					c-50.11,0-90.87-40.77-90.87-90.88C92.82,156.16,133.58,115.39,183.69,115.39z M183.69,290.7c46.55,0,84.43-37.88,84.43-84.43
					c0-46.55-37.87-84.43-84.43-84.43c-46.55,0-84.43,37.88-84.43,84.43C99.26,252.82,137.14,290.7,183.69,290.7z"/>
			</g>
			<g>
				<path class="st0" d="M335.41,115.38c40.41,0,77.38,27.19,87.98,68.08c12.57,48.5-16.66,98.19-65.17,110.76
					c-48.51,12.57-98.2-16.66-110.77-65.16c-6.09-23.5-2.66-47.96,9.64-68.88s32.03-35.8,55.53-41.89
					C320.24,116.33,327.89,115.38,335.41,115.38z M335.44,290.7c6.99,0,14.09-0.88,21.17-2.71c45.07-11.68,72.23-57.85,60.55-102.91
					c-11.68-45.07-57.85-72.23-102.91-60.55l0,0c-45.07,11.68-72.23,57.85-60.55,102.91C263.54,265.43,297.9,290.7,335.44,290.7z"/>
			</g>
			<g>
				<path class="st0" d="M335.41,203.03c40.41,0,77.38,27.19,87.98,68.08c12.57,48.5-16.66,98.19-65.17,110.76
					c-48.51,12.57-98.2-16.66-110.77-65.16c-6.09-23.5-2.66-47.96,9.64-68.88c12.31-20.92,32.03-35.79,55.53-41.89l0,0
					C320.24,203.98,327.89,203.03,335.41,203.03z M335.44,378.35c6.99,0,14.09-0.88,21.17-2.71
					c45.06-11.68,72.23-57.85,60.55-102.91c-9.85-37.99-44.2-63.25-81.74-63.26c-6.99,0-14.09,0.88-21.17,2.71l0,0
					c-45.07,11.68-72.23,57.85-60.55,102.91C263.54,353.09,297.9,378.35,335.44,378.35z"/>
			</g>
			<g>
				<path class="st0" d="M183.69,203.04c50.11,0,90.87,40.77,90.87,90.87c0,50.11-40.76,90.88-90.87,90.88
					c-50.11,0-90.87-40.77-90.87-90.88C92.82,243.81,133.58,203.04,183.69,203.04z M183.69,378.35c46.55,0,84.43-37.88,84.43-84.43
					c0-46.55-37.87-84.43-84.43-84.43c-46.55,0-84.43,37.88-84.43,84.43C99.26,340.47,137.14,378.35,183.69,378.35z"/>
			</g>
			<g>
				<path class="st0" d="M260.09,70.89c50.11,0,90.87,40.76,90.87,90.87c0,50.11-40.76,90.88-90.87,90.88
					c-24.27,0-47.09-9.45-64.26-26.62c-17.16-17.16-26.62-39.99-26.62-64.26C169.21,111.65,209.98,70.89,260.09,70.89z
					 M260.09,246.19c46.55,0,84.43-37.88,84.43-84.43c0-46.55-37.87-84.43-84.43-84.43c-46.55,0-84.43,37.87-84.43,84.43
					C175.66,208.31,213.53,246.19,260.09,246.19z"/>
			</g>
			<g>
				<path class="st0" d="M260.09,246.41c50.11,0,90.87,40.76,90.87,90.87c0,50.11-40.76,90.88-90.87,90.88
					c-24.27,0-47.09-9.45-64.26-26.62c-17.16-17.16-26.62-39.98-26.62-64.26C169.21,287.17,209.98,246.41,260.09,246.41z
					 M260.09,421.71c46.55,0,84.43-37.88,84.43-84.43c0-46.55-37.87-84.43-84.43-84.43c-46.55,0-84.43,37.87-84.43,84.43
					C175.66,383.83,213.53,421.71,260.09,421.71z"/>
			</g>
			<g>
				<path class="st0" d="M335.43,203.04c50.11,0,90.87,40.76,90.87,90.87c0,50.11-40.76,90.88-90.87,90.88
					c-24.27,0-47.09-9.45-64.26-26.62c-17.16-17.16-26.62-39.99-26.62-64.26C244.56,243.81,285.32,203.04,335.43,203.04z
					 M335.43,378.35c46.55,0,84.43-37.88,84.43-84.43c0-46.55-37.87-84.43-84.43-84.43c-46.55,0-84.43,37.87-84.43,84.43
					C251,340.47,288.87,378.35,335.43,378.35z"/>
			</g>
			<g>
				<path class="st0" d="M258.67,159.13c50.11,0,90.87,40.77,90.87,90.87c0,50.11-40.76,90.88-90.87,90.88
					c-50.11,0-90.87-40.77-90.87-90.88C167.8,199.9,208.57,159.13,258.67,159.13z M258.67,334.44c46.55,0,84.43-37.88,84.43-84.43
					c0-46.55-37.87-84.43-84.43-84.43c-46.55,0-84.43,37.88-84.43,84.43C174.24,296.56,212.12,334.44,258.67,334.44z"/>
			</g>
		</g>
	</g>
</g>
</svg>
