<?xml version="1.0" encoding="utf-8"?>
<!-- Generator: Adobe Illustrator 27.3.1, SVG Export Plug-In . SVG Version: 6.00 Build 0)  -->
<svg version="1.1" xmlns="http://www.w3.org/2000/svg" xmlns:xlink="http://www.w3.org/1999/xlink" x="0px" y="0px"
	 viewBox="0 0 1000 1000" style="enable-background:new 0 0 1000 1000;" xml:space="preserve">
<style type="text/css">
	.st0{fill:#FFFFFF;}
</style>
<g id="Layer_1">
</g>
<g id="particles">
</g>
<g id="Layer_2">
	<g id="logomark-expanded">
		<g>
			<path class="st0" d="M567.6,909.3H458.8V100.8l10.5-2.1c199.2-39.1,257.5,74.4,270.3,108.6c45.4,4.1,80.8,21.2,105.3,51
				c40.9,49.8,37.9,118.9,36,138.8c33.3,45.8,46.8,92.2,40.3,138c-8.7,61.1-50.4,102.1-65.6,115.2c1.3,67.1-29.5,105.4-56,125.8
				c-21.1,16.3-42.5,23.9-53.5,27c-17,43.1-52.5,74.9-103.2,92.4C603.5,909.2,569,909.3,567.6,909.3L567.6,909.3z M484.8,883.3h82.7
				c1.2,0,124.4-1.4,156.3-95.3l2.4-7.2l7.5-1.4c4.1-0.8,101.1-20.7,95.5-134.3l-0.3-6.9l5.5-4.1c5-3.8,121.3-94.1,22.4-225.3
				l-3.3-4.3l0.8-5.4c0.1-0.7,10.2-75.6-29.8-124.2c-21.2-25.8-53.3-39.9-95.3-42.1l-9.8-0.5l-2.2-9.5
				c-1.3-5.6-34.7-134.5-232.4-100.4L484.8,883.3L484.8,883.3z"/>
			<g>
				<path class="st0" d="M694.4,547.9c-42.9,0-82.1-38.6-84-40.5c-59.5-59.5-127.2-1.9-130,0.6c-5.4,4.7-13.7,4.1-18.4-1.3
					c-4.7-5.4-4.1-13.7,1.3-18.4c30.5-26.5,104.4-60.5,165.5,0.6c12.3,12.2,50.6,41.5,79.8,30.3c6.7-2.6,14.2,0.8,16.8,7.5
					c2.6,6.7-0.8,14.2-7.5,16.8C710.1,546.6,702.2,547.9,694.4,547.9L694.4,547.9z"/>
				<path class="st0" d="M784.1,610.4c-13.4,0-26.8-3.3-38.7-9.4c-27.8-14.5-45.1-43-45.1-74.3c0-46.2,37.6-83.8,83.8-83.8
					c8.7,0,17.2,1.3,25.4,3.9c6.9,2.2,10.7,9.5,8.5,16.3c-2.2,6.9-9.5,10.7-16.3,8.5c-5.6-1.8-11.5-2.7-17.5-2.7
					c-31.8,0-57.8,25.9-57.8,57.8c0,21.6,11.9,41.2,31.1,51.2c8.3,4.3,17.2,6.5,26.6,6.5c7.2,0,13,5.8,13,13
					S791.2,610.3,784.1,610.4L784.1,610.4z"/>
			</g>
			<path class="st0" d="M498.6,319c-9.8,0-19.5-1-29-2.9c-7-1.4-11.6-8.3-10.1-15.4c1.4-7,8.3-11.6,15.4-10.1
				c7.8,1.6,15.8,2.4,23.8,2.4c28.7,0,56.4-10.4,77.9-29.3c5.4-4.7,13.6-4.2,18.4,1.2c4.7,5.4,4.2,13.6-1.2,18.4
				C567.4,306.3,533.6,319,498.6,319L498.6,319z"/>
			<path class="st0" d="M585.1,781.8c-3.1,0-6.1-1.1-8.6-3.2c-21.5-18.9-49.2-29.3-77.9-29.3c-8,0-16,0.8-23.8,2.4
				c-7,1.4-13.9-3.1-15.4-10.1c-1.4-7,3.1-13.9,10.1-15.4c9.5-1.9,19.3-2.9,29-2.9c35,0,68.8,12.7,95.1,35.8
				c5.4,4.7,5.9,13,1.2,18.4C592.3,780.3,588.7,781.8,585.1,781.8L585.1,781.8z"/>
			<path class="st0" d="M736.2,805.2c-1.3,0-2.6-0.2-3.8-0.6c-6.9-2.1-10.7-9.4-8.6-16.2c0.3-1,15.6-53.8-11.2-87.5
				c-18.2-22.9-52.4-32.8-101.6-29.6c-7.1,0.5-13.4-4.9-13.9-12.1c-0.5-7.2,5-13.4,12.1-13.9c58.3-3.9,100,9.4,123.8,39.5
				c35.4,44.7,16.4,108.5,15.6,111.2C746.9,801.6,741.8,805.2,736.2,805.2L736.2,805.2z"/>
			<path class="st0" d="M585.1,416c-6.7,0-12.4-5.2-13-12c-0.6-7.2,4.8-13.4,12-14c56.9-4.5,96.7-24.6,118.1-59.8
				c28.8-47.3,15.2-106.8,15.1-107.4c-1.6-7,2.7-14,9.7-15.7c7-1.7,14,2.7,15.7,9.6c0.7,2.8,16.3,70.4-18.2,127
				c-26,42.7-72.5,67-138.3,72.2C585.8,416,585.5,416,585.1,416L585.1,416z"/>
			<path class="st0" d="M759.4,416c-6.3,0-11.9-4.6-12.9-11.1c-0.1-0.6-7.4-45.5-37.4-55.6c-6.8-2.3-10.5-9.7-8.2-16.5
				c2.3-6.8,9.7-10.5,16.5-8.1c45.1,15.3,54.4,73.9,54.8,76.4c1.1,7.1-3.8,13.7-10.9,14.8C760.7,415.9,760,416,759.4,416L759.4,416z
				"/>
			<path class="st0" d="M411.7,905.9c-0.6,0-1.2,0-1.9-0.1C211.1,877.3,61.3,704.2,61.3,503.1c0-7.2,5.8-13,13-13
				c7.2,0,13,5.8,13,13c0,188.2,140.3,350.3,326.2,376.9c7.1,1,12.1,7.6,11,14.7C423.6,901.2,418.1,905.9,411.7,905.9L411.7,905.9z"
				/>
			<path class="st0" d="M93.3,394.8c-1.3,0-2.7-0.2-4-0.6c-6.8-2.2-10.6-9.6-8.4-16.4c47.5-146.7,176.6-255.6,328.9-277.4
				c7.1-1.1,13.7,3.9,14.7,11c1,7.1-3.9,13.7-11.1,14.7c-142.6,20.4-263.4,122.3-307.8,259.6C103.9,391.3,98.8,394.8,93.3,394.8
				L93.3,394.8z"/>
			<path class="st0" d="M411.7,833.9c-0.7,0-1.5-0.1-2.3-0.2c-70.2-12.3-133.6-46.2-183.3-97.9c-5-5.2-4.8-13.4,0.4-18.4
				c5.2-5,13.4-4.8,18.4,0.4c45.9,47.7,104.4,78.9,169.1,90.3c7.1,1.2,11.8,8,10.6,15.1C423.4,829.4,417.9,833.9,411.7,833.9
				L411.7,833.9z"/>
			<path class="st0" d="M156.7,601.2c-5.7,0-11-3.8-12.6-9.6c-7.8-28.7-11.8-58.5-11.8-88.5c0-122.8,67-235.8,174.9-294.8
				c6.3-3.4,14.2-1.1,17.7,5.2c3.4,6.3,1.1,14.2-5.2,17.7c-99.5,54.4-161.3,158.6-161.3,271.9c0,27.7,3.7,55.2,10.9,81.7
				c1.9,6.9-2.2,14.1-9.1,16C159,601.1,157.9,601.2,156.7,601.2L156.7,601.2z"/>
			<path class="st0" d="M411.7,758.1c-0.9,0-1.9-0.1-2.9-0.3c-120.4-27.1-204.5-132.4-204.5-256s84.1-228.9,204.5-256
				c7.1-1.6,14,2.8,15.6,9.8c1.6,7-2.8,14-9.8,15.6c-108.5,24.5-184.2,119.3-184.2,230.6s75.7,206.2,184.2,230.6
				c7,1.6,11.4,8.6,9.8,15.6C423,754,417.6,758.1,411.7,758.1L411.7,758.1z"/>
		</g>
	</g>
</g>
<g id="halo">
</g>
</svg>
