<?xml version="1.0" encoding="UTF-8"?>
<svg id="Layer_2" data-name="Layer 2" xmlns="http://www.w3.org/2000/svg" viewBox="0 0 1000 500">
  <defs>
    <style>
      .cls-1, .cls-2 {
        fill: #fff;
      }

      .cls-2 {
        font-family: AristaProAlternate-Bold, 'Arista Pro Alternate';
        font-size: 216.82px;
        font-weight: 700;
      }
    </style>
  </defs>
  <g>
    <path class="cls-1" d="m196.75,359.53h-29.83v-221.75l2.88-.56c54.64-10.72,70.62,20.42,74.12,29.8,12.45,1.12,22.15,5.82,28.87,13.99,11.22,13.66,10.39,32.6,9.87,38.07,9.12,12.55,12.84,25.28,11.06,37.85-2.38,16.76-13.84,28-17.99,31.59.35,18.4-8.09,28.9-15.36,34.51-5.78,4.46-11.67,6.54-14.68,7.39-4.65,11.81-14.4,20.55-28.3,25.34-10.79,3.72-20.25,3.76-20.65,3.76Zm-22.69-7.14h22.69c.33,0,34.11-.38,42.86-26.12l.67-1.98,2.06-.38c1.12-.22,27.74-5.67,26.2-36.85l-.09-1.89,1.52-1.14c1.37-1.03,33.27-25.8,6.14-61.79l-.9-1.19.21-1.47c.03-.2,2.79-20.74-8.18-34.05-5.82-7.07-14.62-10.95-26.15-11.54l-2.69-.14-.61-2.62c-.37-1.52-9.52-36.89-63.75-27.52v208.69Z"/>
    <g>
      <path class="cls-1" d="m231.54,260.41c-11.77,0-22.51-10.58-23.04-11.11-16.31-16.3-34.89-.51-35.67.17-1.49,1.29-3.75,1.13-5.04-.35s-1.13-3.74.36-5.04c8.37-7.27,28.64-16.59,45.4.17,3.37,3.35,13.87,11.37,21.89,8.32,1.84-.7,3.91.22,4.61,2.07.7,1.84-.22,3.91-2.06,4.61-2.15.82-4.31,1.16-6.45,1.16Z"/>
      <path class="cls-1" d="m256.12,277.53c-3.69,0-7.36-.9-10.61-2.59-7.63-3.98-12.37-11.79-12.37-20.39,0-12.67,10.31-22.98,22.98-22.98,2.37,0,4.71.36,6.96,1.07,1.88.6,2.92,2.6,2.32,4.48-.6,1.88-2.59,2.92-4.48,2.32-1.54-.49-3.15-.74-4.79-.74-8.73,0-15.84,7.11-15.84,15.84,0,5.93,3.27,11.31,8.53,14.06,2.27,1.18,4.73,1.78,7.31,1.78,1.97,0,3.57,1.6,3.57,3.57s-1.6,3.57-3.57,3.57Z"/>
    </g>
    <path class="cls-1" d="m177.83,197.63c-2.68,0-5.36-.27-7.96-.8-1.93-.4-3.18-2.28-2.78-4.22.4-1.93,2.28-3.17,4.22-2.78,2.14.44,4.33.66,6.53.66,7.87,0,15.47-2.86,21.37-8.05,1.49-1.3,3.74-1.15,5.04.33,1.3,1.48,1.16,3.74-.33,5.04-7.21,6.34-16.47,9.83-26.09,9.83Z"/>
    <path class="cls-1" d="m201.56,324.55c-.84,0-1.68-.29-2.36-.89-5.91-5.19-13.5-8.05-21.37-8.05-2.2,0-4.39.22-6.53.66-1.93.39-3.82-.85-4.22-2.78-.4-1.93.85-3.82,2.78-4.22,2.61-.53,5.29-.8,7.96-.8,9.61,0,18.88,3.49,26.09,9.83,1.48,1.3,1.63,3.56.33,5.04-.71.8-1.69,1.21-2.69,1.21Z"/>
    <path class="cls-1" d="m242.99,330.99c-.35,0-.7-.05-1.05-.16-1.89-.58-2.95-2.57-2.37-4.46.09-.29,4.29-14.76-3.07-24-4.99-6.28-14.37-9-27.86-8.11-1.94.14-3.67-1.36-3.8-3.33-.13-1.97,1.36-3.67,3.33-3.8,15.99-1.06,27.42,2.58,33.95,10.83,9.71,12.26,4.5,29.76,4.28,30.5-.47,1.54-1.89,2.53-3.41,2.53Z"/>
    <path class="cls-1" d="m201.56,224.23c-1.84,0-3.41-1.42-3.55-3.29-.16-1.97,1.31-3.69,3.28-3.84,15.62-1.23,26.52-6.75,32.39-16.4,7.89-12.96,4.18-29.3,4.14-29.46-.45-1.92.74-3.84,2.65-4.3,1.93-.46,3.84.73,4.3,2.64.19.78,4.46,19.3-4.98,34.83-7.13,11.72-19.89,18.39-37.93,19.81-.1,0-.19.01-.29.01Z"/>
    <path class="cls-1" d="m249.35,224.23c-1.73,0-3.26-1.27-3.52-3.03-.03-.15-2.03-12.47-10.25-15.26-1.87-.63-2.87-2.66-2.24-4.53.63-1.87,2.66-2.87,4.53-2.23,12.37,4.2,14.92,20.27,15.02,20.95.29,1.95-1.05,3.77-3,4.06-.18.03-.36.04-.53.04Z"/>
    <path class="cls-1" d="m154,358.6c-.17,0-.34-.01-.51-.04-54.5-7.81-95.6-55.3-95.6-110.45,0-1.97,1.6-3.57,3.57-3.57s3.57,1.6,3.57,3.57c0,51.63,38.47,96.07,89.48,103.38,1.95.28,3.31,2.09,3.03,4.04-.25,1.78-1.78,3.06-3.53,3.06Z"/>
    <path class="cls-1" d="m66.67,218.43c-.36,0-.73-.06-1.1-.17-1.88-.61-2.91-2.62-2.3-4.5,13.02-40.24,48.43-70.1,90.22-76.07,1.94-.29,3.76,1.08,4.04,3.03.28,1.95-1.08,3.76-3.03,4.04-39.11,5.59-72.25,33.53-84.43,71.2-.49,1.51-1.89,2.47-3.4,2.47Z"/>
    <path class="cls-1" d="m154,338.84c-.2,0-.41-.02-.62-.05-19.25-3.38-36.64-12.67-50.28-26.85-1.37-1.42-1.32-3.68.1-5.05,1.42-1.37,3.68-1.33,5.05.1,12.59,13.08,28.62,21.65,46.37,24.77,1.94.34,3.24,2.19,2.9,4.14-.3,1.73-1.81,2.95-3.51,2.95Z"/>
    <path class="cls-1" d="m84.06,275.04c-1.57,0-3.01-1.05-3.44-2.63-2.15-7.88-3.24-16.05-3.24-24.28,0-33.69,18.38-64.66,47.96-80.84,1.73-.95,3.9-.31,4.85,1.42.95,1.73.31,3.9-1.42,4.85-27.29,14.92-44.25,43.5-44.25,74.58,0,7.6,1,15.14,2.99,22.41.52,1.9-.6,3.87-2.51,4.38-.31.09-.63.13-.94.13Z"/>
    <path class="cls-1" d="m153.99,318.06c-.26,0-.52-.03-.79-.09-33.03-7.44-56.09-36.32-56.09-70.22s23.07-62.77,56.09-70.22c1.94-.44,3.84.78,4.27,2.7.43,1.93-.77,3.84-2.7,4.27-29.75,6.71-50.52,32.71-50.52,63.25s20.78,56.54,50.52,63.25c1.92.43,3.13,2.34,2.7,4.27-.37,1.66-1.85,2.79-3.48,2.79Z"/>
  </g>
  <text class="cls-2" transform="translate(347.88 311.69)"><tspan x="0" y="0">Onirix</tspan></text>
</svg>